<!-- <svg width="20" height="20" viewBox="0 0 20 20" fill="none" xmlns="http://www.w3.org/2000/svg">
<path d="M6.91699 14.4169L3.08365 10.5835C3.00032 10.5002 2.94143 10.4099 2.90699 10.3127C2.87199 10.2155 2.85449 10.1113 2.85449 10.0002C2.85449 9.88905 2.87199 9.78488 2.90699 9.68766C2.94143 9.59044 3.00032 9.50016 3.08365 9.41683L6.93782 5.56266C7.0906 5.40988 7.2781 5.3335 7.50032 5.3335C7.72254 5.3335 7.91699 5.41683 8.08365 5.5835C8.23643 5.73627 8.31282 5.93072 8.31282 6.16683C8.31282 6.40294 8.23643 6.59738 8.08365 6.75016L5.66699 9.16683H16.6669C16.9031 9.16683 17.1008 9.24655 17.2603 9.406C17.4203 9.566 17.5003 9.76405 17.5003 10.0002C17.5003 10.2363 17.4203 10.4341 17.2603 10.5935C17.1008 10.7535 16.9031 10.8335 16.6669 10.8335H5.66699L8.10449 13.271C8.25727 13.4238 8.33365 13.6113 8.33365 13.8335C8.33365 14.0558 8.25032 14.2502 8.08365 14.4169C7.93088 14.5696 7.73643 14.646 7.50032 14.646C7.26421 14.646 7.06977 14.5696 6.91699 14.4169Z" fill="black"/>
</svg> -->

<svg viewBox="0 0 428 342" fill="none" xmlns="http://www.w3.org/2000/svg">
<g clip-path="url(#clip0_447_2)">
<path d="M406 149.667H73.4988L186.416 36.7494C188.454 34.7815 190.079 32.4275 191.197 29.8247C192.315 27.222 192.903 24.4226 192.928 21.59C192.953 18.7574 192.413 15.9482 191.34 13.3264C190.268 10.7046 188.684 8.32272 186.68 6.31968C184.677 4.31663 182.296 2.73257 179.674 1.65991C177.052 0.587245 174.243 0.0474798 171.41 0.0720945C168.578 0.0967093 165.778 0.685217 163.175 1.80328C160.573 2.92134 158.219 4.54656 156.251 6.58411L6.91749 155.917C2.91811 159.918 0.671387 165.343 0.671387 171C0.671387 176.657 2.91811 182.082 6.91749 186.083L156.251 335.416C160.274 339.302 165.663 341.452 171.257 341.404C176.85 341.355 182.201 339.112 186.156 335.156C190.112 331.201 192.355 325.85 192.404 320.257C192.452 314.663 190.302 309.274 186.416 305.251L73.4988 192.333H406C411.658 192.333 417.084 190.086 421.085 186.085C425.086 182.084 427.333 176.658 427.333 171C427.333 165.342 425.086 159.916 421.085 155.915C417.084 151.914 411.658 149.667 406 149.667Z" fill="black"/>
</g>
<defs>
<clipPath id="clip0_447_2">
<rect width="428" height="342" fill="white"/>
</clipPath>
</defs>
</svg>
