<svg width="20" height="20" viewBox="0 0 20 20" fill="none" xmlns="http://www.w3.org/2000/svg">
<g clip-path="url(#clip0_778_8)">
<path d="M16.5455 2H3.45455C2.65091 2 2 2.65091 2 3.45455V16.5455C2 17.3491 2.65091 18 3.45455 18H16.5455C17.3491 18 18 17.3491 18 16.5455V3.45455C18 2.65091 17.3491 2 16.5455 2ZM7.05746 15.0909H4.912V8.18764H7.05746V15.0909ZM5.96291 7.20073C5.27127 7.20073 4.712 6.64 4.712 5.94982C4.712 5.25964 5.272 4.69964 5.96291 4.69964C6.65236 4.69964 7.21309 5.26036 7.21309 5.94982C7.21309 6.64 6.65236 7.20073 5.96291 7.20073ZM15.0938 15.0909H12.9498V11.7338C12.9498 10.9331 12.9353 9.90327 11.8349 9.90327C10.7186 9.90327 10.5469 10.7753 10.5469 11.6756V15.0909H8.40291V8.18764H10.4611V9.13091H10.4902C10.7767 8.58836 11.4764 8.016 12.52 8.016C14.6924 8.016 15.0938 9.44582 15.0938 11.3047V15.0909Z" fill="black"/>
</g>
<defs>
<clipPath id="clip0_778_8">
<rect width="16" height="16" fill="white" transform="translate(2 2)"/>
</clipPath>
</defs>
</svg>
