<svg width="100" height="100" viewBox="0 0 100 100" fill="none" xmlns="http://www.w3.org/2000/svg">
<g clip-path="url(#clip0_788_12)">
<g clip-path="url(#clip1_788_12)">
<path d="M100 0H0V100H100V0Z" fill="white"/>
<path d="M41.9998 10H38.7998V13.2H41.9998V10Z" fill="black"/>
<path d="M57.9998 10H54.7998V13.2H57.9998V10Z" fill="black"/>
<path d="M61.2 10H58V13.2H61.2V10Z" fill="black"/>
<path d="M38.8001 13.1992H35.6001V16.3992H38.8001V13.1992Z" fill="black"/>
<path d="M41.9998 13.1992H38.7998V16.3992H41.9998V13.1992Z" fill="black"/>
<path d="M48.4002 13.1992H45.2002V16.3992H48.4002V13.1992Z" fill="black"/>
<path d="M51.5999 13.1992H48.3999V16.3992H51.5999V13.1992Z" fill="black"/>
<path d="M54.8001 13.1992H51.6001V16.3992H54.8001V13.1992Z" fill="black"/>
<path d="M57.9998 13.1992H54.7998V16.3992H57.9998V13.1992Z" fill="black"/>
<path d="M61.2 13.1992H58V16.3992H61.2V13.1992Z" fill="black"/>
<path d="M41.9998 16.4004H38.7998V19.6004H41.9998V16.4004Z" fill="black"/>
<path d="M45.2 16.4004H42V19.6004H45.2V16.4004Z" fill="black"/>
<path d="M48.4002 16.4004H45.2002V19.6004H48.4002V16.4004Z" fill="black"/>
<path d="M54.8001 16.4004H51.6001V19.6004H54.8001V16.4004Z" fill="black"/>
<path d="M64.4002 16.4004H61.2002V19.6004H64.4002V16.4004Z" fill="black"/>
<path d="M38.8001 19.5996H35.6001V22.7996H38.8001V19.5996Z" fill="black"/>
<path d="M41.9998 19.5996H38.7998V22.7996H41.9998V19.5996Z" fill="black"/>
<path d="M48.4002 19.5996H45.2002V22.7996H48.4002V19.5996Z" fill="black"/>
<path d="M54.8001 19.5996H51.6001V22.7996H54.8001V19.5996Z" fill="black"/>
<path d="M57.9998 19.5996H54.7998V22.7996H57.9998V19.5996Z" fill="black"/>
<path d="M61.2 19.5996H58V22.7996H61.2V19.5996Z" fill="black"/>
<path d="M45.2 22.8008H42V26.0008H45.2V22.8008Z" fill="black"/>
<path d="M51.5999 22.8008H48.3999V26.0008H51.5999V22.8008Z" fill="black"/>
<path d="M61.2 22.8008H58V26.0008H61.2V22.8008Z" fill="black"/>
<path d="M38.8001 26H35.6001V29.2H38.8001V26Z" fill="black"/>
<path d="M45.2 26H42V29.2H45.2V26Z" fill="black"/>
<path d="M54.8001 26H51.6001V29.2H54.8001V26Z" fill="black"/>
<path d="M57.9998 26H54.7998V29.2H57.9998V26Z" fill="black"/>
<path d="M38.8001 29.1992H35.6001V32.3992H38.8001V29.1992Z" fill="black"/>
<path d="M45.2 29.1992H42V32.3992H45.2V29.1992Z" fill="black"/>
<path d="M51.5999 29.1992H48.3999V32.3992H51.5999V29.1992Z" fill="black"/>
<path d="M57.9998 29.1992H54.7998V32.3992H57.9998V29.1992Z" fill="black"/>
<path d="M64.4002 29.1992H61.2002V32.3992H64.4002V29.1992Z" fill="black"/>
<path d="M51.5999 32.4004H48.3999V35.6004H51.5999V32.4004Z" fill="black"/>
<path d="M64.4002 32.4004H61.2002V35.6004H64.4002V32.4004Z" fill="black"/>
<path d="M13.2 35.5996H10V38.7996H13.2V35.5996Z" fill="black"/>
<path d="M16.4002 35.5996H13.2002V38.7996H16.4002V35.5996Z" fill="black"/>
<path d="M19.5999 35.5996H16.3999V38.7996H19.5999V35.5996Z" fill="black"/>
<path d="M22.8001 35.5996H19.6001V38.7996H22.8001V35.5996Z" fill="black"/>
<path d="M25.9998 35.5996H22.7998V38.7996H25.9998V35.5996Z" fill="black"/>
<path d="M32.4002 35.5996H29.2002V38.7996H32.4002V35.5996Z" fill="black"/>
<path d="M35.5999 35.5996H32.3999V38.7996H35.5999V35.5996Z" fill="black"/>
<path d="M38.8001 35.5996H35.6001V38.7996H38.8001V35.5996Z" fill="black"/>
<path d="M41.9998 35.5996H38.7998V38.7996H41.9998V35.5996Z" fill="black"/>
<path d="M45.2 35.5996H42V38.7996H45.2V35.5996Z" fill="black"/>
<path d="M51.5999 35.5996H48.3999V38.7996H51.5999V35.5996Z" fill="black"/>
<path d="M57.9998 35.5996H54.7998V38.7996H57.9998V35.5996Z" fill="black"/>
<path d="M61.2 35.5996H58V38.7996H61.2V35.5996Z" fill="black"/>
<path d="M64.4002 35.5996H61.2002V38.7996H64.4002V35.5996Z" fill="black"/>
<path d="M67.5999 35.5996H64.3999V38.7996H67.5999V35.5996Z" fill="black"/>
<path d="M73.9998 35.5996H70.7998V38.7996H73.9998V35.5996Z" fill="black"/>
<path d="M80.4002 35.5996H77.2002V38.7996H80.4002V35.5996Z" fill="black"/>
<path d="M86.8001 35.5996H83.6001V38.7996H86.8001V35.5996Z" fill="black"/>
<path d="M13.2 38.8008H10V42.0008H13.2V38.8008Z" fill="black"/>
<path d="M22.8001 38.8008H19.6001V42.0008H22.8001V38.8008Z" fill="black"/>
<path d="M25.9998 38.8008H22.7998V42.0008H25.9998V38.8008Z" fill="black"/>
<path d="M35.5999 38.8008H32.3999V42.0008H35.5999V38.8008Z" fill="black"/>
<path d="M41.9998 38.8008H38.7998V42.0008H41.9998V38.8008Z" fill="black"/>
<path d="M57.9998 38.8008H54.7998V42.0008H57.9998V38.8008Z" fill="black"/>
<path d="M67.5999 38.8008H64.3999V42.0008H67.5999V38.8008Z" fill="black"/>
<path d="M73.9998 38.8008H70.7998V42.0008H73.9998V38.8008Z" fill="black"/>
<path d="M77.2 38.8008H74V42.0008H77.2V38.8008Z" fill="black"/>
<path d="M89.9998 38.8008H86.7998V42.0008H89.9998V38.8008Z" fill="black"/>
<path d="M19.5999 42H16.3999V45.2H19.5999V42Z" fill="black"/>
<path d="M32.4002 42H29.2002V45.2H32.4002V42Z" fill="black"/>
<path d="M35.5999 42H32.3999V45.2H35.5999V42Z" fill="black"/>
<path d="M38.8001 42H35.6001V45.2H38.8001V42Z" fill="black"/>
<path d="M41.9998 42H38.7998V45.2H41.9998V42Z" fill="black"/>
<path d="M48.4002 42H45.2002V45.2H48.4002V42Z" fill="black"/>
<path d="M51.5999 42H48.3999V45.2H51.5999V42Z" fill="black"/>
<path d="M54.8001 42H51.6001V45.2H54.8001V42Z" fill="black"/>
<path d="M57.9998 42H54.7998V45.2H57.9998V42Z" fill="black"/>
<path d="M61.2 42H58V45.2H61.2V42Z" fill="black"/>
<path d="M64.4002 42H61.2002V45.2H64.4002V42Z" fill="black"/>
<path d="M67.5999 42H64.3999V45.2H67.5999V42Z" fill="black"/>
<path d="M70.8001 42H67.6001V45.2H70.8001V42Z" fill="black"/>
<path d="M77.2 42H74V45.2H77.2V42Z" fill="black"/>
<path d="M83.5999 42H80.3999V45.2H83.5999V42Z" fill="black"/>
<path d="M13.2 45.1992H10V48.3992H13.2V45.1992Z" fill="black"/>
<path d="M22.8001 45.1992H19.6001V48.3992H22.8001V45.1992Z" fill="black"/>
<path d="M29.2 45.1992H26V48.3992H29.2V45.1992Z" fill="black"/>
<path d="M41.9998 45.1992H38.7998V48.3992H41.9998V45.1992Z" fill="black"/>
<path d="M45.2 45.1992H42V48.3992H45.2V45.1992Z" fill="black"/>
<path d="M48.4002 45.1992H45.2002V48.3992H48.4002V45.1992Z" fill="black"/>
<path d="M57.9998 45.1992H54.7998V48.3992H57.9998V45.1992Z" fill="black"/>
<path d="M64.4002 45.1992H61.2002V48.3992H64.4002V45.1992Z" fill="black"/>
<path d="M67.5999 45.1992H64.3999V48.3992H67.5999V45.1992Z" fill="black"/>
<path d="M13.2 48.4004H10V51.6004H13.2V48.4004Z" fill="black"/>
<path d="M19.5999 48.4004H16.3999V51.6004H19.5999V48.4004Z" fill="black"/>
<path d="M25.9998 48.4004H22.7998V51.6004H25.9998V48.4004Z" fill="black"/>
<path d="M29.2 48.4004H26V51.6004H29.2V48.4004Z" fill="black"/>
<path d="M32.4002 48.4004H29.2002V51.6004H32.4002V48.4004Z" fill="black"/>
<path d="M41.9998 48.4004H38.7998V51.6004H41.9998V48.4004Z" fill="black"/>
<path d="M48.4002 48.4004H45.2002V51.6004H48.4002V48.4004Z" fill="black"/>
<path d="M51.5999 48.4004H48.3999V51.6004H51.5999V48.4004Z" fill="black"/>
<path d="M57.9998 48.4004H54.7998V51.6004H57.9998V48.4004Z" fill="black"/>
<path d="M61.2 48.4004H58V51.6004H61.2V48.4004Z" fill="black"/>
<path d="M64.4002 48.4004H61.2002V51.6004H64.4002V48.4004Z" fill="black"/>
<path d="M67.5999 48.4004H64.3999V51.6004H67.5999V48.4004Z" fill="black"/>
<path d="M70.8001 48.4004H67.6001V51.6004H70.8001V48.4004Z" fill="black"/>
<path d="M73.9998 48.4004H70.7998V51.6004H73.9998V48.4004Z" fill="black"/>
<path d="M77.2 48.4004H74V51.6004H77.2V48.4004Z" fill="black"/>
<path d="M80.4002 48.4004H77.2002V51.6004H80.4002V48.4004Z" fill="black"/>
<path d="M86.8001 48.4004H83.6001V51.6004H86.8001V48.4004Z" fill="black"/>
<path d="M89.9998 48.4004H86.7998V51.6004H89.9998V48.4004Z" fill="black"/>
<path d="M13.2 51.5996H10V54.7996H13.2V51.5996Z" fill="black"/>
<path d="M19.5999 51.5996H16.3999V54.7996H19.5999V51.5996Z" fill="black"/>
<path d="M22.8001 51.5996H19.6001V54.7996H22.8001V51.5996Z" fill="black"/>
<path d="M25.9998 51.5996H22.7998V54.7996H25.9998V51.5996Z" fill="black"/>
<path d="M29.2 51.5996H26V54.7996H29.2V51.5996Z" fill="black"/>
<path d="M35.5999 51.5996H32.3999V54.7996H35.5999V51.5996Z" fill="black"/>
<path d="M45.2 51.5996H42V54.7996H45.2V51.5996Z" fill="black"/>
<path d="M51.5999 51.5996H48.3999V54.7996H51.5999V51.5996Z" fill="black"/>
<path d="M57.9998 51.5996H54.7998V54.7996H57.9998V51.5996Z" fill="black"/>
<path d="M61.2 51.5996H58V54.7996H61.2V51.5996Z" fill="black"/>
<path d="M70.8001 51.5996H67.6001V54.7996H70.8001V51.5996Z" fill="black"/>
<path d="M73.9998 51.5996H70.7998V54.7996H73.9998V51.5996Z" fill="black"/>
<path d="M77.2 51.5996H74V54.7996H77.2V51.5996Z" fill="black"/>
<path d="M89.9998 51.5996H86.7998V54.7996H89.9998V51.5996Z" fill="black"/>
<path d="M13.2 54.8008H10V58.0008H13.2V54.8008Z" fill="black"/>
<path d="M19.5999 54.8008H16.3999V58.0008H19.5999V54.8008Z" fill="black"/>
<path d="M29.2 54.8008H26V58.0008H29.2V54.8008Z" fill="black"/>
<path d="M32.4002 54.8008H29.2002V58.0008H32.4002V54.8008Z" fill="black"/>
<path d="M35.5999 54.8008H32.3999V58.0008H35.5999V54.8008Z" fill="black"/>
<path d="M51.5999 54.8008H48.3999V58.0008H51.5999V54.8008Z" fill="black"/>
<path d="M54.8001 54.8008H51.6001V58.0008H54.8001V54.8008Z" fill="black"/>
<path d="M57.9998 54.8008H54.7998V58.0008H57.9998V54.8008Z" fill="black"/>
<path d="M67.5999 54.8008H64.3999V58.0008H67.5999V54.8008Z" fill="black"/>
<path d="M70.8001 54.8008H67.6001V58.0008H70.8001V54.8008Z" fill="black"/>
<path d="M77.2 54.8008H74V58.0008H77.2V54.8008Z" fill="black"/>
<path d="M83.5999 54.8008H80.3999V58.0008H83.5999V54.8008Z" fill="black"/>
<path d="M13.2 58H10V61.2H13.2V58Z" fill="black"/>
<path d="M45.2 58H42V61.2H45.2V58Z" fill="black"/>
<path d="M51.5999 58H48.3999V61.2H51.5999V58Z" fill="black"/>
<path d="M54.8001 58H51.6001V61.2H54.8001V58Z" fill="black"/>
<path d="M64.4002 58H61.2002V61.2H64.4002V58Z" fill="black"/>
<path d="M86.8001 58H83.6001V61.2H86.8001V58Z" fill="black"/>
<path d="M89.9998 58H86.7998V61.2H89.9998V58Z" fill="black"/>
<path d="M13.2 61.1992H10V64.3992H13.2V61.1992Z" fill="black"/>
<path d="M19.5999 61.1992H16.3999V64.3992H19.5999V61.1992Z" fill="black"/>
<path d="M22.8001 61.1992H19.6001V64.3992H22.8001V61.1992Z" fill="black"/>
<path d="M32.4002 61.1992H29.2002V64.3992H32.4002V61.1992Z" fill="black"/>
<path d="M35.5999 61.1992H32.3999V64.3992H35.5999V61.1992Z" fill="black"/>
<path d="M41.9998 61.1992H38.7998V64.3992H41.9998V61.1992Z" fill="black"/>
<path d="M45.2 61.1992H42V64.3992H45.2V61.1992Z" fill="black"/>
<path d="M57.9998 61.1992H54.7998V64.3992H57.9998V61.1992Z" fill="black"/>
<path d="M61.2 61.1992H58V64.3992H61.2V61.1992Z" fill="black"/>
<path d="M64.4002 61.1992H61.2002V64.3992H64.4002V61.1992Z" fill="black"/>
<path d="M67.5999 61.1992H64.3999V64.3992H67.5999V61.1992Z" fill="black"/>
<path d="M70.8001 61.1992H67.6001V64.3992H70.8001V61.1992Z" fill="black"/>
<path d="M73.9998 61.1992H70.7998V64.3992H73.9998V61.1992Z" fill="black"/>
<path d="M77.2 61.1992H74V64.3992H77.2V61.1992Z" fill="black"/>
<path d="M80.4002 61.1992H77.2002V64.3992H80.4002V61.1992Z" fill="black"/>
<path d="M89.9998 61.1992H86.7998V64.3992H89.9998V61.1992Z" fill="black"/>
<path d="M38.8001 64.4004H35.6001V67.6004H38.8001V64.4004Z" fill="black"/>
<path d="M45.2 64.4004H42V67.6004H45.2V64.4004Z" fill="black"/>
<path d="M57.9998 64.4004H54.7998V67.6004H57.9998V64.4004Z" fill="black"/>
<path d="M64.4002 64.4004H61.2002V67.6004H64.4002V64.4004Z" fill="black"/>
<path d="M77.2 64.4004H74V67.6004H77.2V64.4004Z" fill="black"/>
<path d="M89.9998 64.4004H86.7998V67.6004H89.9998V64.4004Z" fill="black"/>
<path d="M38.8001 67.5996H35.6001V70.7996H38.8001V67.5996Z" fill="black"/>
<path d="M45.2 67.5996H42V70.7996H45.2V67.5996Z" fill="black"/>
<path d="M48.4002 67.5996H45.2002V70.7996H48.4002V67.5996Z" fill="black"/>
<path d="M51.5999 67.5996H48.3999V70.7996H51.5999V67.5996Z" fill="black"/>
<path d="M54.8001 67.5996H51.6001V70.7996H54.8001V67.5996Z" fill="black"/>
<path d="M64.4002 67.5996H61.2002V70.7996H64.4002V67.5996Z" fill="black"/>
<path d="M70.8001 67.5996H67.6001V70.7996H70.8001V67.5996Z" fill="black"/>
<path d="M77.2 67.5996H74V70.7996H77.2V67.5996Z" fill="black"/>
<path d="M83.5999 67.5996H80.3999V70.7996H83.5999V67.5996Z" fill="black"/>
<path d="M86.8001 67.5996H83.6001V70.7996H86.8001V67.5996Z" fill="black"/>
<path d="M89.9998 67.5996H86.7998V70.7996H89.9998V67.5996Z" fill="black"/>
<path d="M48.4002 70.8008H45.2002V74.0008H48.4002V70.8008Z" fill="black"/>
<path d="M54.8001 70.8008H51.6001V74.0008H54.8001V70.8008Z" fill="black"/>
<path d="M61.2 70.8008H58V74.0008H61.2V70.8008Z" fill="black"/>
<path d="M64.4002 70.8008H61.2002V74.0008H64.4002V70.8008Z" fill="black"/>
<path d="M77.2 70.8008H74V74.0008H77.2V70.8008Z" fill="black"/>
<path d="M80.4002 70.8008H77.2002V74.0008H80.4002V70.8008Z" fill="black"/>
<path d="M38.8001 74H35.6001V77.2H38.8001V74Z" fill="black"/>
<path d="M54.8001 74H51.6001V77.2H54.8001V74Z" fill="black"/>
<path d="M57.9998 74H54.7998V77.2H57.9998V74Z" fill="black"/>
<path d="M61.2 74H58V77.2H61.2V74Z" fill="black"/>
<path d="M64.4002 74H61.2002V77.2H64.4002V74Z" fill="black"/>
<path d="M67.5999 74H64.3999V77.2H67.5999V74Z" fill="black"/>
<path d="M70.8001 74H67.6001V77.2H70.8001V74Z" fill="black"/>
<path d="M73.9998 74H70.7998V77.2H73.9998V74Z" fill="black"/>
<path d="M77.2 74H74V77.2H77.2V74Z" fill="black"/>
<path d="M80.4002 74H77.2002V77.2H80.4002V74Z" fill="black"/>
<path d="M38.8001 77.1992H35.6001V80.3992H38.8001V77.1992Z" fill="black"/>
<path d="M45.2 77.1992H42V80.3992H45.2V77.1992Z" fill="black"/>
<path d="M48.4002 77.1992H45.2002V80.3992H48.4002V77.1992Z" fill="black"/>
<path d="M64.4002 77.1992H61.2002V80.3992H64.4002V77.1992Z" fill="black"/>
<path d="M77.2 77.1992H74V80.3992H77.2V77.1992Z" fill="black"/>
<path d="M86.8001 77.1992H83.6001V80.3992H86.8001V77.1992Z" fill="black"/>
<path d="M89.9998 77.1992H86.7998V80.3992H89.9998V77.1992Z" fill="black"/>
<path d="M38.8001 80.4004H35.6001V83.6004H38.8001V80.4004Z" fill="black"/>
<path d="M41.9998 80.4004H38.7998V83.6004H41.9998V80.4004Z" fill="black"/>
<path d="M45.2 80.4004H42V83.6004H45.2V80.4004Z" fill="black"/>
<path d="M48.4002 80.4004H45.2002V83.6004H48.4002V80.4004Z" fill="black"/>
<path d="M51.5999 80.4004H48.3999V83.6004H51.5999V80.4004Z" fill="black"/>
<path d="M54.8001 80.4004H51.6001V83.6004H54.8001V80.4004Z" fill="black"/>
<path d="M57.9998 80.4004H54.7998V83.6004H57.9998V80.4004Z" fill="black"/>
<path d="M70.8001 80.4004H67.6001V83.6004H70.8001V80.4004Z" fill="black"/>
<path d="M77.2 80.4004H74V83.6004H77.2V80.4004Z" fill="black"/>
<path d="M83.5999 80.4004H80.3999V83.6004H83.5999V80.4004Z" fill="black"/>
<path d="M89.9998 80.4004H86.7998V83.6004H89.9998V80.4004Z" fill="black"/>
<path d="M38.8001 83.5996H35.6001V86.7996H38.8001V83.5996Z" fill="black"/>
<path d="M45.2 83.5996H42V86.7996H45.2V83.5996Z" fill="black"/>
<path d="M48.4002 83.5996H45.2002V86.7996H48.4002V83.5996Z" fill="black"/>
<path d="M67.5999 83.5996H64.3999V86.7996H67.5999V83.5996Z" fill="black"/>
<path d="M70.8001 83.5996H67.6001V86.7996H70.8001V83.5996Z" fill="black"/>
<path d="M73.9998 83.5996H70.7998V86.7996H73.9998V83.5996Z" fill="black"/>
<path d="M77.2 83.5996H74V86.7996H77.2V83.5996Z" fill="black"/>
<path d="M80.4002 83.5996H77.2002V86.7996H80.4002V83.5996Z" fill="black"/>
<path d="M86.8001 83.5996H83.6001V86.7996H86.8001V83.5996Z" fill="black"/>
<path d="M38.8001 86.8008H35.6001V90.0008H38.8001V86.8008Z" fill="black"/>
<path d="M54.8001 86.8008H51.6001V90.0008H54.8001V86.8008Z" fill="black"/>
<path d="M61.2 86.8008H58V90.0008H61.2V86.8008Z" fill="black"/>
<path d="M64.4002 86.8008H61.2002V90.0008H64.4002V86.8008Z" fill="black"/>
<path d="M83.5999 86.8008H80.3999V90.0008H83.5999V86.8008Z" fill="black"/>
<path d="M86.8001 86.8008H83.6001V90.0008H86.8001V86.8008Z" fill="black"/>
<path d="M89.9998 86.8008H86.7998V90.0008H89.9998V86.8008Z" fill="black"/>
<g clip-path="url(#clip2_788_12)">
<path d="M29.2322 10H26.0322H22.8322H22.8322H19.6322H16.4322H13.2322H10.0322V13.2V16.4V19.6V22.8V26V29.1999V32.3999H13.2322H16.4322H19.6322H22.8322H22.8322H26.0322H29.2322H32.4322V29.1999V26V22.8V19.6V16.4V13.2V10H29.2322ZM29.2322 16.4V19.6V22.8V26V29.1999H26.0322H22.8322H22.8322H19.6322H16.4322H13.2322V26V22.8V19.6V16.4V13.2H16.4322H19.6322H22.8322H22.8322H26.0322H29.2322V16.4Z" fill="black"/>
</g>
<path d="M22.7999 16.4004H22.7998H19.5999H16.3999V19.6003V22.8004V26.0004H19.5999H22.7998H22.7999H25.9998V22.8004V19.6003V16.4004H22.7999Z" fill="black"/>
<g clip-path="url(#clip3_788_12)">
<path d="M86.8323 10H83.6323H80.4323H80.4323H77.2323H74.0323H70.8323H67.6323V13.2V16.4V19.6V22.8V26V29.1999V32.3999H70.8323H74.0323H77.2323H80.4323H80.4323H83.6323H86.8323H90.0323V29.1999V26V22.8V19.6V16.4V13.2V10H86.8323ZM86.8323 16.4V19.6V22.8V26V29.1999H83.6323H80.4323H80.4323H77.2323H74.0323H70.8323V26V22.8V19.6V16.4V13.2H74.0323H77.2323H80.4323H80.4323H83.6323H86.8323V16.4Z" fill="black"/>
</g>
<path d="M80.4 16.4004H80.3999H77.2H74V19.6003V22.8004V26.0004H77.2H80.3999H80.4H83.5999V22.8004V19.6003V16.4004H80.4Z" fill="black"/>
<g clip-path="url(#clip4_788_12)">
<path d="M29.2322 67.5996H26.0322H22.8322H22.8322H19.6322H16.4322H13.2322H10.0322V70.7996V73.9996V77.1996V80.3996V83.5996V86.7996V89.9995H13.2322H16.4322H19.6322H22.8322H22.8322H26.0322H29.2322H32.4322V86.7996V83.5996V80.3996V77.1996V73.9996V70.7996V67.5996H29.2322ZM29.2322 73.9996V77.1996V80.3996V83.5996V86.7996H26.0322H22.8322H22.8322H19.6322H16.4322H13.2322V83.5996V80.3996V77.1996V73.9996V70.7996H16.4322H19.6322H22.8322H22.8322H26.0322H29.2322V73.9996Z" fill="black"/>
</g>
<path d="M22.7999 74H22.7998H19.5999H16.3999V77.2V80.4V83.6H19.5999H22.7998H22.7999H25.9998V80.4V77.2V74H22.7999Z" fill="black"/>
</g>
</g>
<defs>
<clipPath id="clip0_788_12">
<rect width="100" height="100" fill="white"/>
</clipPath>
<clipPath id="clip1_788_12">
<rect width="100" height="100" fill="white"/>
</clipPath>
<clipPath id="clip2_788_12">
<rect width="22.4" height="22.4" fill="white" transform="translate(10 10)"/>
</clipPath>
<clipPath id="clip3_788_12">
<rect width="22.4" height="22.4" fill="white" transform="translate(67.6001 10)"/>
</clipPath>
<clipPath id="clip4_788_12">
<rect width="22.4" height="22.4" fill="white" transform="translate(10 67.5996)"/>
</clipPath>
</defs>
</svg>
