<svg width="20" height="20" viewBox="0 0 20 20" fill="none" xmlns="http://www.w3.org/2000/svg">
<path fill-rule="evenodd" clip-rule="evenodd" d="M4 2H16C17.1046 2 18 2.89543 18 4V16C18 17.1046 17.1046 18 16 18H4C2.89543 18 2 17.1046 2 16V4C2 2.89543 2.89543 2 4 2ZM6.08333 6.82666V7.45667H7.58333L8.72333 13.8767L10.2083 13.7717C11.6683 11.9217 12.6533 10.5367 13.1633 9.61666C13.6833 8.68667 13.9433 7.91166 13.9433 7.29167C13.9433 6.92168 13.8333 6.64167 13.6133 6.45166C13.4033 6.26166 13.1383 6.16667 12.8183 6.16667C12.2183 6.16667 11.7183 6.42168 11.3183 6.93166C11.7083 7.19167 11.9733 7.40666 12.1133 7.57666C12.2633 7.73668 12.3383 7.95166 12.3383 8.22166C12.3383 8.67167 12.2033 9.18166 11.9333 9.75167C11.6733 10.3217 11.3883 10.8267 11.0783 11.2667C10.8783 11.5467 10.6233 11.8917 10.3133 12.3017L9.33834 6.76667C9.25834 6.36666 9.00834 6.16667 8.58834 6.16667C8.39833 6.16667 8.03333 6.24667 7.49333 6.40666C6.95333 6.55666 6.48333 6.69668 6.08333 6.82666Z" fill="black"/>
</svg>
